G04 DipTrace 2.2.0.9*
%INISPduino.GTL*%
%MOIN*%
%ADD13C,0.0197*%
%ADD14C,0.02*%
%ADD17R,0.0669X0.0197*%
%ADD18R,0.0197X0.0669*%
%ADD19C,0.048*%
%ADD20R,0.0591X0.0512*%
%ADD21C,0.0709*%
%ADD22R,0.0709X0.0709*%
%ADD23C,0.04*%
%FSLAX44Y44*%
%SFA1B1*%
%OFA0B0*%
G04*
G70*
G90*
G75*
G01*
%LNTop*%
%LPD*%
X8309Y12367D2*
D13*
Y11932D1*
D14*
Y11622D1*
X8253Y11566D1*
X7994Y12367D2*
D13*
Y12802D1*
D14*
Y12869D1*
X8190Y13066D1*
X7679Y12367D2*
D13*
Y12802D1*
D14*
Y13015D1*
X4815Y15879D1*
X7128Y11816D2*
D13*
X7065D1*
D14*
X6378Y12503D1*
Y13316D1*
X4815Y14879D1*
X7128Y11501D2*
D13*
X6565D1*
D14*
Y11753D1*
X6003Y12316D1*
Y12691D1*
X4815Y13879D1*
X7679Y9060D2*
D13*
X7481D1*
D14*
X6383D1*
X5440Y10003D1*
Y12254D1*
X4815Y12879D1*
X7994Y9060D2*
D13*
Y9495D1*
D14*
Y9637D1*
X7753Y9878D1*
X8309Y9060D2*
D13*
Y9495D1*
D14*
X8315D1*
Y9878D1*
X8624Y9060D2*
D13*
Y8625D1*
D14*
Y8503D1*
X6191D1*
X4815Y9879D1*
X8939Y9060D2*
D13*
Y8625D1*
D14*
Y8190D1*
X5503D1*
X4815Y8879D1*
X9254Y9060D2*
D13*
Y8625D1*
D14*
Y7815D1*
X4878D1*
X4815Y7879D1*
X9569Y9060D2*
D13*
Y9495D1*
D14*
Y9687D1*
X9378Y9878D1*
X9569Y9060D2*
D13*
Y8625D1*
D14*
Y7694D1*
X9378Y7503D1*
X7253D1*
X6690Y6940D1*
X4877D1*
X4815Y6879D1*
X9884Y9060D2*
D13*
Y8625D1*
D14*
Y8372D1*
X9941Y8315D1*
X9691Y15691D2*
X8816Y16566D1*
Y16629D1*
X10435Y9611D2*
D13*
Y9316D1*
D14*
Y8009D1*
X10691Y7753D1*
X8691Y15691D2*
Y16004D1*
X8128Y16566D1*
X4690D1*
X4253Y16129D1*
Y5441D1*
X4815Y4879D1*
X9691Y14691D2*
Y15004D1*
X10503D1*
X11378Y15879D1*
X12816D1*
X10503Y15004D2*
Y14877D1*
X10877Y14503D1*
X7128Y10241D2*
D13*
X6640D1*
D14*
X6326Y10555D1*
X6190Y10691D1*
X6065Y10566D1*
X10435Y9926D2*
D13*
X9955D1*
D14*
X9640Y10241D1*
X7128D1*
X10435Y9926D2*
D13*
X10831D1*
D14*
X10941Y9816D1*
Y9378D1*
X10771Y9159D1*
X11066Y8190D1*
Y7003D1*
X7128Y10871D2*
D13*
X6642D1*
D14*
X6326Y10555D1*
X10435Y11501D2*
D13*
X10938D1*
D14*
X11878Y12441D1*
Y12941D1*
X12816Y13879D1*
X10435Y11816D2*
D13*
Y12014D1*
D14*
Y12123D1*
X10503Y12191D1*
X9884Y12367D2*
D13*
Y12822D1*
D14*
X9941Y12878D1*
X10691D1*
X11191Y12378D1*
X9569Y12367D2*
D13*
Y12802D1*
D14*
Y13132D1*
X9691Y13253D1*
X9254Y12367D2*
D13*
Y12802D1*
D14*
Y12940D1*
X9191Y13003D1*
X8939Y12367D2*
D13*
Y11932D1*
D14*
Y11692D1*
X9066Y11566D1*
X10435Y10241D2*
D13*
X11015D1*
D14*
X11253Y10003D1*
Y9128D1*
X10435Y11186D2*
D13*
X11327D1*
D14*
X12128Y10385D1*
Y7389D1*
X12441Y6879D1*
X12816D1*
X7439Y5066D2*
X8939D1*
X10441Y5813D2*
X9939D1*
X9634Y5509D1*
X9192Y5066D1*
X8939D1*
X7128Y11186D2*
D13*
X6565D1*
D14*
X6193D1*
X6065Y11314D1*
X7128Y11186D2*
D13*
X7562D1*
X10435Y10871D2*
X9323D1*
X9008Y11186D1*
X8378D1*
D14*
X7940D1*
X6570D1*
X5878Y11878D2*
Y11501D1*
X6065Y11314D1*
X12816Y14879D2*
X11753D1*
X11378Y15254D1*
X9634Y5509D2*
X9941Y5202D1*
Y4628D1*
X10253Y4315D1*
X13066D1*
X13378Y4628D1*
Y14316D1*
X12816Y14879D1*
X7128Y10556D2*
D13*
X7562D1*
D14*
X7868D1*
X7940Y10628D1*
Y11186D1*
X18498Y12367D2*
D13*
Y11932D1*
D14*
Y11622D1*
X18442Y11566D1*
X17628Y5814D2*
Y6777D1*
X17917Y7065D1*
X17316Y9926D2*
D13*
X16882D1*
D14*
X16552D1*
X16504Y9878D1*
X18183Y12367D2*
D13*
Y12802D1*
D14*
Y12869D1*
X18379Y13066D1*
X19128Y5814D2*
Y6377D1*
X19817Y7065D1*
X17316Y9611D2*
D13*
X16987D1*
D14*
X16816Y9441D1*
X7439Y5814D2*
Y6777D1*
X7728Y7065D1*
X7128Y9926D2*
D13*
X6693D1*
D14*
X6363D1*
X6315Y9878D1*
X8939Y5814D2*
Y6377D1*
X9628Y7065D1*
X7128Y9611D2*
D13*
X6798D1*
D14*
X6628Y9441D1*
X8624Y12367D2*
D13*
Y13691D1*
D14*
X7878D1*
X7128Y14441D1*
Y15691D1*
X7691D1*
X8624Y13691D2*
X10814D1*
X10877Y13755D1*
X10435Y10556D2*
D13*
X10870D1*
D14*
X11200D1*
X11753Y10003D1*
Y6128D1*
X10691Y5065D1*
X10441D1*
X17868Y12367D2*
D13*
Y12802D1*
D14*
Y13015D1*
X15004Y15879D1*
X18812Y12367D2*
D13*
Y13691D1*
D14*
X18066D1*
X17316Y14441D1*
Y15691D1*
X17879D1*
X18812Y13691D2*
X21002D1*
X21066Y13755D1*
X17316Y11816D2*
D13*
X17254D1*
D14*
X16566Y12503D1*
Y13316D1*
X15004Y14879D1*
X20623Y10556D2*
D13*
X21058D1*
D14*
X21389D1*
X21942Y10003D1*
Y6128D1*
X20879Y5065D1*
X20629D1*
X17316Y11501D2*
D13*
X16754D1*
D14*
Y11753D1*
X16191Y12316D1*
Y12691D1*
X15004Y13879D1*
X17868Y9060D2*
D13*
X17669D1*
D14*
X16572D1*
X15629Y10003D1*
Y12254D1*
X15004Y12879D1*
X18183Y9060D2*
D13*
Y9495D1*
D14*
Y9637D1*
X17941Y9878D1*
X18498Y9060D2*
D13*
Y9495D1*
D14*
X18504D1*
Y9878D1*
X18812Y9060D2*
D13*
Y8625D1*
D14*
Y8503D1*
X16379D1*
X15004Y9879D1*
X19127Y9060D2*
D13*
Y8625D1*
D14*
Y8190D1*
X15692D1*
X15004Y8879D1*
X19442Y9060D2*
D13*
Y8625D1*
D14*
Y7815D1*
X15067D1*
X15004Y7879D1*
X19757Y9060D2*
D13*
Y9495D1*
D14*
Y9687D1*
X19567Y9878D1*
X19757Y9060D2*
D13*
Y8625D1*
D14*
Y7694D1*
X19567Y7503D1*
X17441D1*
X16879Y6940D1*
X15065D1*
X15004Y6879D1*
X20072Y9060D2*
D13*
Y8625D1*
D14*
Y8372D1*
X20129Y8315D1*
X19879Y15691D2*
X19004Y16566D1*
Y16629D1*
X20623Y9611D2*
D13*
Y9316D1*
D14*
Y8009D1*
X20879Y7753D1*
X18879Y15691D2*
Y16004D1*
X18317Y16566D1*
X14879D1*
X14441Y16129D1*
Y5441D1*
X15004Y4879D1*
X19879Y14691D2*
Y15004D1*
X20692D1*
X21567Y15879D1*
X23005D1*
X20692Y15004D2*
Y14877D1*
X21066Y14503D1*
X17316Y10241D2*
D13*
X16828D1*
D14*
X16515Y10555D1*
X16379Y10691D1*
X16254Y10566D1*
X20623Y9926D2*
D13*
X20144D1*
D14*
X19829Y10241D1*
X17316D1*
X20623Y9926D2*
D13*
X21020D1*
D14*
X21129Y9816D1*
Y9378D1*
X20959Y9159D1*
X21254Y8190D1*
Y7003D1*
X17316Y10871D2*
D13*
X16831D1*
D14*
X16515Y10555D1*
X20623Y11501D2*
D13*
X21127D1*
D14*
X22067Y12441D1*
Y12941D1*
X23005Y13879D1*
X20623Y11816D2*
D13*
Y12014D1*
D14*
Y12123D1*
X20692Y12191D1*
X20072Y12367D2*
D13*
Y12822D1*
D14*
X20129Y12878D1*
X20879D1*
X21379Y12378D1*
X19757Y12367D2*
D13*
Y12802D1*
D14*
Y13132D1*
X19879Y13253D1*
X19442Y12367D2*
D13*
Y12802D1*
D14*
Y12940D1*
X19379Y13003D1*
X19127Y12367D2*
D13*
Y11932D1*
D14*
Y11692D1*
X19254Y11566D1*
X20623Y10241D2*
D13*
X21204D1*
D14*
X21442Y10003D1*
Y9128D1*
X20623Y11186D2*
D13*
X21516D1*
D14*
X22317Y10385D1*
Y7389D1*
X22629Y6879D1*
X23005D1*
X17628Y5066D2*
X19128D1*
X20629Y5813D2*
X20127D1*
X19823Y5509D1*
X19380Y5066D1*
X19128D1*
X17316Y11186D2*
D13*
X16754D1*
D14*
X16382D1*
X16254Y11314D1*
X17316Y11186D2*
D13*
X17751D1*
X20623Y10871D2*
X19511D1*
X19196Y11186D1*
X18567D1*
D14*
X18129D1*
X16759D1*
X16066Y11878D2*
Y11501D1*
X16254Y11314D1*
X23005Y14879D2*
X21942D1*
X21567Y15254D1*
X19823Y5509D2*
X20129Y5202D1*
Y4628D1*
X20442Y4315D1*
X23255D1*
X23567Y4628D1*
Y14316D1*
X23005Y14879D1*
X17316Y10556D2*
D13*
X17751D1*
D14*
X18057D1*
X18129Y10628D1*
Y11186D1*
D23*
X9378Y9878D3*
X6628Y9441D3*
X9066Y11566D3*
X9941Y8315D3*
X10691Y7753D3*
X6315Y9878D3*
X11253Y9128D3*
X7753Y9878D3*
X8315D3*
X9191Y13003D3*
X9691Y13253D3*
X11191Y12378D3*
X10503Y12191D3*
X8190Y13066D3*
X8253Y11566D3*
X5878Y11878D3*
X11378Y15254D3*
X8816Y16629D3*
X11066Y7003D3*
X19567Y9878D3*
X16816Y9441D3*
X19254Y11566D3*
X20129Y8315D3*
X20879Y7753D3*
X16504Y9878D3*
X21442Y9128D3*
X17941Y9878D3*
X18504D3*
X19379Y13003D3*
X19879Y13253D3*
X21379Y12378D3*
X20692Y12191D3*
X18379Y13066D3*
X18442Y11566D3*
X16066Y11878D3*
X21567Y15254D3*
X19004Y16629D3*
X21254Y7003D3*
D17*
X7128Y11816D3*
Y11501D3*
Y11186D3*
Y10871D3*
Y10556D3*
Y10241D3*
Y9926D3*
Y9611D3*
D18*
X7679Y9060D3*
X7994D3*
X8309D3*
X8624D3*
X8939D3*
X9254D3*
X9569D3*
X9884D3*
D17*
X10435Y9611D3*
Y9926D3*
Y10241D3*
Y10556D3*
Y10871D3*
Y11186D3*
Y11501D3*
Y11816D3*
D18*
X9884Y12367D3*
X9569D3*
X9254D3*
X8939D3*
X8624D3*
X8309D3*
X7994D3*
X7679D3*
D19*
X9628Y7065D3*
X7728D3*
D20*
X8939Y5066D3*
Y5814D3*
X7439Y5066D3*
Y5814D3*
X10877Y14503D3*
Y13755D3*
X10441Y5065D3*
Y5813D3*
X6065Y10566D3*
Y11314D3*
D21*
X4815Y15879D3*
Y14879D3*
Y13879D3*
Y12879D3*
Y11879D3*
Y10879D3*
Y9879D3*
Y8879D3*
Y7879D3*
Y6879D3*
Y5879D3*
Y4879D3*
X12816Y15879D3*
Y14879D3*
Y13879D3*
Y12879D3*
Y11879D3*
Y10879D3*
Y9879D3*
Y8879D3*
Y7879D3*
Y6879D3*
Y5879D3*
Y4879D3*
D22*
X9691Y15691D3*
D21*
X8691D3*
X7691D3*
Y14691D3*
X8691D3*
X9691D3*
D17*
X17316Y11816D3*
Y11501D3*
Y11186D3*
Y10871D3*
Y10556D3*
Y10241D3*
Y9926D3*
Y9611D3*
D18*
X17868Y9060D3*
X18183D3*
X18498D3*
X18812D3*
X19127D3*
X19442D3*
X19757D3*
X20072D3*
D17*
X20623Y9611D3*
Y9926D3*
Y10241D3*
Y10556D3*
Y10871D3*
Y11186D3*
Y11501D3*
Y11816D3*
D18*
X20072Y12367D3*
X19757D3*
X19442D3*
X19127D3*
X18812D3*
X18498D3*
X18183D3*
X17868D3*
D19*
X19817Y7065D3*
X17917D3*
D20*
X19128Y5066D3*
Y5814D3*
X17628Y5066D3*
Y5814D3*
X21066Y14503D3*
Y13755D3*
X20629Y5065D3*
Y5813D3*
X16254Y10566D3*
Y11314D3*
D21*
X15004Y15879D3*
Y14879D3*
Y13879D3*
Y12879D3*
Y11879D3*
Y10879D3*
Y9879D3*
Y8879D3*
Y7879D3*
Y6879D3*
Y5879D3*
Y4879D3*
X23005Y15879D3*
Y14879D3*
Y13879D3*
Y12879D3*
Y11879D3*
Y10879D3*
Y9879D3*
Y8879D3*
Y7879D3*
Y6879D3*
Y5879D3*
Y4879D3*
D22*
X19879Y15691D3*
D21*
X18879D3*
X17879D3*
Y14691D3*
X18879D3*
X19879D3*
M02*
