G04 DipTrace 2.2.0.9*
%INISPduino.GTS*%
%MOIN*%
%ADD28C,0.048*%
%ADD29R,0.0789X0.0789*%
%ADD31C,0.0789*%
%ADD33R,0.0671X0.0592*%
%ADD35C,0.056*%
%ADD37R,0.0277X0.0749*%
%ADD39R,0.0749X0.0277*%
%FSLAX44Y44*%
%SFA1B1*%
%OFA0B0*%
G04*
G70*
G90*
G75*
G01*
%LNTopMask*%
%LPD*%
D28*
X9378Y9878D3*
X6628Y9441D3*
X9066Y11566D3*
X9941Y8315D3*
X10691Y7753D3*
X6315Y9878D3*
X11253Y9128D3*
X7753Y9878D3*
X8315D3*
X9191Y13003D3*
X9691Y13253D3*
X11191Y12378D3*
X10503Y12191D3*
X8190Y13066D3*
X8253Y11566D3*
X5878Y11878D3*
X11378Y15254D3*
X8816Y16629D3*
X11066Y7003D3*
X19567Y9878D3*
X16816Y9441D3*
X19254Y11566D3*
X20129Y8315D3*
X20879Y7753D3*
X16504Y9878D3*
X21442Y9128D3*
X17941Y9878D3*
X18504D3*
X19379Y13003D3*
X19879Y13253D3*
X21379Y12378D3*
X20692Y12191D3*
X18379Y13066D3*
X18442Y11566D3*
X16066Y11878D3*
X21567Y15254D3*
X19004Y16629D3*
X21254Y7003D3*
D39*
X7128Y11816D3*
Y11501D3*
Y11186D3*
Y10871D3*
Y10556D3*
Y10241D3*
Y9926D3*
Y9611D3*
D37*
X7679Y9060D3*
X7994D3*
X8309D3*
X8624D3*
X8939D3*
X9254D3*
X9569D3*
X9884D3*
D39*
X10435Y9611D3*
Y9926D3*
Y10241D3*
Y10556D3*
Y10871D3*
Y11186D3*
Y11501D3*
Y11816D3*
D37*
X9884Y12367D3*
X9569D3*
X9254D3*
X8939D3*
X8624D3*
X8309D3*
X7994D3*
X7679D3*
D35*
X9628Y7065D3*
X7728D3*
D33*
X8939Y5066D3*
Y5814D3*
X7439Y5066D3*
Y5814D3*
X10877Y14503D3*
Y13755D3*
X10441Y5065D3*
Y5813D3*
X6065Y10566D3*
Y11314D3*
D31*
X4815Y15879D3*
Y14879D3*
Y13879D3*
Y12879D3*
Y11879D3*
Y10879D3*
Y9879D3*
Y8879D3*
Y7879D3*
Y6879D3*
Y5879D3*
Y4879D3*
X12816Y15879D3*
Y14879D3*
Y13879D3*
Y12879D3*
Y11879D3*
Y10879D3*
Y9879D3*
Y8879D3*
Y7879D3*
Y6879D3*
Y5879D3*
Y4879D3*
D29*
X9691Y15691D3*
D31*
X8691D3*
X7691D3*
Y14691D3*
X8691D3*
X9691D3*
D39*
X17316Y11816D3*
Y11501D3*
Y11186D3*
Y10871D3*
Y10556D3*
Y10241D3*
Y9926D3*
Y9611D3*
D37*
X17868Y9060D3*
X18183D3*
X18498D3*
X18812D3*
X19127D3*
X19442D3*
X19757D3*
X20072D3*
D39*
X20623Y9611D3*
Y9926D3*
Y10241D3*
Y10556D3*
Y10871D3*
Y11186D3*
Y11501D3*
Y11816D3*
D37*
X20072Y12367D3*
X19757D3*
X19442D3*
X19127D3*
X18812D3*
X18498D3*
X18183D3*
X17868D3*
D35*
X19817Y7065D3*
X17917D3*
D33*
X19128Y5066D3*
Y5814D3*
X17628Y5066D3*
Y5814D3*
X21066Y14503D3*
Y13755D3*
X20629Y5065D3*
Y5813D3*
X16254Y10566D3*
Y11314D3*
D31*
X15004Y15879D3*
Y14879D3*
Y13879D3*
Y12879D3*
Y11879D3*
Y10879D3*
Y9879D3*
Y8879D3*
Y7879D3*
Y6879D3*
Y5879D3*
Y4879D3*
X23005Y15879D3*
Y14879D3*
Y13879D3*
Y12879D3*
Y11879D3*
Y10879D3*
Y9879D3*
Y8879D3*
Y7879D3*
Y6879D3*
Y5879D3*
Y4879D3*
D29*
X19879Y15691D3*
D31*
X18879D3*
X17879D3*
Y14691D3*
X18879D3*
X19879D3*
M02*
