M48
INCH
T01C0.0191
T02C0.032
T03C0.0394
%
T01
X+009378Y+009878
X+008315Y+009878
X+007753Y+009878
X+006628Y+009441
X+006315Y+009878
X+005878Y+011878
X+008253Y+011566
X+009066Y+011566
X+009191Y+013003
X+009691Y+013253
X+010503Y+012191
X+011191Y+012378
X+011378Y+015254
X+008816Y+016629
X+008190Y+013066
X+011253Y+009128
X+010691Y+007753
X+011066Y+007003
X+009941Y+008315
X+016504Y+009878
X+016816Y+009441
X+017941Y+009878
X+018504Y+009878
X+019567Y+009878
X+020129Y+008315
X+020879Y+007753
X+021254Y+007003
X+021442Y+009128
X+020692Y+012191
X+021379Y+012378
X+019879Y+013253
X+019379Y+013003
X+018379Y+013066
X+018442Y+011566
X+019254Y+011566
X+016066Y+011878
X+019004Y+016629
X+021567Y+015254
T02
X+009628Y+007065
X+007728Y+007065
X+017917Y+007065
X+019817Y+007065
T03
X+004815Y+015879
X+004815Y+014879
X+004815Y+013879
X+004815Y+012879
X+004815Y+011879
X+004815Y+010879
X+004815Y+009879
X+004815Y+008879
X+004815Y+007879
X+004815Y+006879
X+004815Y+005879
X+004815Y+004879
X+012816Y+004879
X+012816Y+005879
X+012816Y+006879
X+012816Y+007879
X+012816Y+008879
X+012816Y+009879
X+012816Y+010879
X+012816Y+011879
X+012816Y+012879
X+012816Y+013879
X+012816Y+014879
X+012816Y+015879
X+015004Y+015879
X+015004Y+014879
X+015004Y+013879
X+015004Y+012879
X+015004Y+011879
X+015004Y+010879
X+015004Y+009879
X+015004Y+008879
X+015004Y+007879
X+015004Y+006879
X+015004Y+005879
X+015004Y+004879
X+023005Y+004879
X+023005Y+005879
X+023005Y+006879
X+023005Y+007879
X+023005Y+008879
X+023005Y+009879
X+023005Y+010879
X+023005Y+011879
X+023005Y+012879
X+023005Y+013879
X+023005Y+014879
X+023005Y+015879
X+019879Y+015691
X+018879Y+015691
X+017879Y+015691
X+017879Y+014691
X+018879Y+014691
X+019879Y+014691
X+009691Y+014691
X+008691Y+014691
X+007691Y+014691
X+007691Y+015691
X+008691Y+015691
X+009691Y+015691
T00
M30
